# This file uses centimeters as units for non-parametric coordinates.

mtllib spikes.mtl
g default
v -0.500000 -0.050000 0.500000
v 0.500000 -0.050000 0.500000
v -0.500000 0.050000 0.500000
v 0.500000 0.050000 0.500000
v -0.500000 0.050000 -0.500000
v 0.500000 0.050000 -0.500000
v -0.500000 -0.050000 -0.500000
v 0.500000 -0.050000 -0.500000
v -0.400000 0.050000 0.400000
v 0.400000 0.050000 0.400000
v 0.400000 0.050000 -0.400000
v -0.400000 0.050000 -0.400000
v 0.000000 0.050000 0.000000
v 0.000000 0.050000 0.400000
v 0.400000 0.050000 0.000000
v 0.000000 0.050000 -0.400000
v -0.400000 0.050000 0.000000
v -0.350000 0.050000 0.350000
v -0.350000 0.050000 0.050000
v -0.050000 0.050000 0.350000
v -0.050000 0.050000 0.050000
v 0.050000 0.050000 0.350000
v 0.350000 0.050000 0.350000
v 0.350000 0.050000 0.050000
v 0.050000 0.050000 0.050000
v 0.350000 0.050000 -0.050000
v 0.350000 0.050000 -0.350000
v 0.050000 0.050000 -0.350000
v 0.050000 0.050000 -0.050000
v -0.350000 0.050000 -0.350000
v -0.050000 0.050000 -0.350000
v -0.350000 0.050000 -0.050000
v -0.050000 0.050000 -0.050000
v -0.210000 0.550000 0.210000
v -0.210000 0.550000 0.190000
v -0.190000 0.550000 0.210000
v -0.190000 0.550000 0.190000
v 0.190000 0.550000 0.210000
v 0.210000 0.550000 0.210000
v 0.210000 0.550000 0.190000
v 0.190000 0.550000 0.190000
v 0.210000 0.550000 -0.190000
v 0.210000 0.550000 -0.210000
v 0.190000 0.550000 -0.210000
v 0.190000 0.550000 -0.190000
v -0.210000 0.550000 -0.210000
v -0.190000 0.550000 -0.210000
v -0.210000 0.550000 -0.190000
v -0.190000 0.550000 -0.190000
vt 0.375000 0.000000
vt 0.625000 0.000000
vt 0.375000 0.250000
vt 0.625000 0.250000
vt 0.375000 0.500000
vt 0.625000 0.500000
vt 0.375000 0.750000
vt 0.625000 0.750000
vt 0.875000 0.000000
vt 0.875000 0.250000
vt 0.125000 0.000000
vt 0.125000 0.250000
vt 0.375000 0.250000
vt 0.625000 0.250000
vt 0.625000 0.500000
vt 0.375000 0.500000
vt 0.500000 0.375000
vt 0.500000 0.250000
vt 0.625000 0.375000
vt 0.500000 0.500000
vt 0.375000 0.375000
vt 0.375000 0.375000
vt 0.375000 0.250000
vt 0.500000 0.250000
vt 0.500000 0.375000
vt 0.500000 0.250000
vt 0.625000 0.250000
vt 0.625000 0.375000
vt 0.500000 0.375000
vt 0.625000 0.375000
vt 0.625000 0.500000
vt 0.500000 0.500000
vt 0.500000 0.375000
vt 0.500000 0.500000
vt 0.375000 0.500000
vt 0.375000 0.375000
vt 0.500000 0.375000
vt 0.375000 0.375000
vt 0.375000 0.250000
vt 0.500000 0.250000
vt 0.500000 0.375000
vt 0.500000 0.250000
vt 0.625000 0.250000
vt 0.625000 0.375000
vt 0.500000 0.375000
vt 0.625000 0.375000
vt 0.625000 0.500000
vt 0.500000 0.500000
vt 0.500000 0.375000
vt 0.500000 0.500000
vt 0.375000 0.500000
vt 0.375000 0.375000
vt 0.500000 0.375000
vn 0.000000 0.000000 1.000000
vn 0.000000 0.000000 1.000000
vn 0.000000 0.000000 1.000000
vn 0.000000 0.000000 1.000000
vn 0.000000 1.000000 0.000000
vn 0.000000 1.000000 0.000000
vn 0.000000 1.000000 0.000000
vn 0.000000 1.000000 0.000000
vn 0.000000 0.000000 -1.000000
vn 0.000000 0.000000 -1.000000
vn 0.000000 0.000000 -1.000000
vn 0.000000 0.000000 -1.000000
vn 1.000000 0.000000 0.000000
vn 1.000000 0.000000 0.000000
vn 1.000000 0.000000 0.000000
vn 1.000000 0.000000 0.000000
vn -1.000000 0.000000 0.000000
vn -1.000000 0.000000 0.000000
vn -1.000000 0.000000 0.000000
vn -1.000000 0.000000 0.000000
vn 0.000000 1.000000 0.000000
vn 0.000000 1.000000 0.000000
vn 0.000000 1.000000 0.000000
vn 0.000000 1.000000 0.000000
vn 0.000000 1.000000 0.000000
vn 0.000000 1.000000 -0.000000
vn 0.000000 1.000000 -0.000000
vn 0.000000 1.000000 0.000000
vn 0.000000 1.000000 -0.000000
vn 0.000000 1.000000 -0.000000
vn 0.000000 1.000000 -0.000000
vn -0.000000 1.000000 -0.000000
vn 0.000000 1.000000 0.000000
vn 0.000000 1.000000 0.000000
vn 0.000000 1.000000 0.000000
vn 0.000000 1.000000 0.000000
vn 0.000000 1.000000 0.000000
vn 0.000000 1.000000 0.000000
vn 0.000000 1.000000 0.000000
vn 0.000000 1.000000 0.000000
vn 0.000000 1.000000 0.000000
vn 0.000000 1.000000 0.000000
vn 0.000000 1.000000 0.000000
vn 0.000000 1.000000 0.000000
vn 0.000000 1.000000 -0.000000
vn -0.000000 1.000000 0.000000
vn 0.000000 1.000000 -0.000000
vn 0.000000 1.000000 0.000000
vn -0.000000 1.000000 0.000000
vn 0.000000 1.000000 -0.000000
vn -0.000000 1.000000 -0.000000
vn 0.000000 1.000000 0.000000
vn 0.000000 1.000000 0.000000
vn 0.000000 1.000000 0.000000
vn 0.000000 1.000000 -0.000000
vn -0.000000 1.000000 0.000000
vn 0.000000 1.000000 -0.000000
vn 0.000000 1.000000 0.000000
vn 0.000000 1.000000 0.000000
vn -0.000000 1.000000 -0.000000
vn -0.000000 1.000000 -0.000000
vn -0.962964 0.269630 0.000000
vn -0.962964 0.269630 0.000000
vn -0.962964 0.269630 0.000000
vn -0.962964 0.269630 0.000000
vn 0.000000 0.269630 0.962964
vn 0.000000 0.269630 0.962964
vn 0.000000 0.269630 0.962964
vn 0.000000 0.269630 0.962964
vn 0.962964 0.269630 0.000000
vn 0.962964 0.269630 0.000000
vn 0.962964 0.269630 0.000000
vn 0.962964 0.269630 0.000000
vn 0.000000 0.269630 -0.962964
vn 0.000000 0.269630 -0.962964
vn 0.000000 0.269630 -0.962964
vn 0.000000 0.269630 -0.962964
vn 0.000000 0.269630 0.962964
vn 0.000000 0.269630 0.962964
vn 0.000000 0.269630 0.962964
vn 0.000000 0.269630 0.962964
vn 0.962964 0.269630 0.000000
vn 0.962964 0.269630 0.000000
vn 0.962964 0.269630 0.000000
vn 0.962964 0.269630 0.000000
vn 0.000000 0.269630 -0.962964
vn 0.000000 0.269630 -0.962964
vn 0.000000 0.269630 -0.962964
vn 0.000000 0.269630 -0.962964
vn -0.962964 0.269630 0.000000
vn -0.962964 0.269630 0.000000
vn -0.962964 0.269630 0.000000
vn -0.962964 0.269630 0.000000
vn 0.962964 0.269630 0.000000
vn 0.962964 0.269630 0.000000
vn 0.962964 0.269630 0.000000
vn 0.962964 0.269630 0.000000
vn 0.000000 0.269630 -0.962964
vn 0.000000 0.269630 -0.962964
vn 0.000000 0.269630 -0.962964
vn 0.000000 0.269630 -0.962964
vn -0.962964 0.269630 0.000000
vn -0.962964 0.269630 0.000000
vn -0.962964 0.269630 0.000000
vn -0.962964 0.269630 0.000000
vn 0.000000 0.269630 0.962964
vn 0.000000 0.269630 0.962964
vn 0.000000 0.269630 0.962964
vn 0.000000 0.269630 0.962964
vn 0.000000 0.269630 -0.962964
vn 0.000000 0.269630 -0.962964
vn 0.000000 0.269630 -0.962964
vn 0.000000 0.269630 -0.962964
vn -0.962964 0.269630 0.000000
vn -0.962964 0.269630 0.000000
vn -0.962964 0.269630 0.000000
vn -0.962964 0.269630 0.000000
vn 0.000000 0.269630 0.962964
vn 0.000000 0.269630 0.962964
vn 0.000000 0.269630 0.962964
vn 0.000000 0.269630 0.962964
vn 0.962964 0.269630 0.000000
vn 0.962964 0.269630 0.000000
vn 0.962964 0.269630 0.000000
vn 0.962964 0.269630 0.000000
s off
g pCube1
usemtl initialShadingGroup
f 1/1/1 2/2/2 4/4/3 3/3/4
f 35/38/5 34/39/6 36/40/7 37/41/8
f 5/5/9 6/6/10 8/8/11 7/7/12
f 2/2/13 8/9/14 6/10/15 4/4/16
f 7/11/17 1/1/18 3/3/19 5/12/20
s 1
f 3/3/21 4/4/22 10/14/23 14/18/24 9/13/25
f 4/4/22 6/6/26 11/15/27 15/19/28 10/14/23
f 6/6/26 5/5/29 12/16/30 16/20/31 11/15/27
f 5/5/29 3/3/21 9/13/25 17/21/32 12/16/30
s off
f 38/42/33 39/43/34 40/44/35 41/45/36
f 42/46/37 43/47/38 44/48/39 45/49/40
f 47/50/41 46/51/42 48/52/43 49/53/44
s 1
f 17/21/32 9/13/25 18/23/45 19/22/46
f 9/13/25 14/18/24 20/24/47 18/23/45
f 14/18/24 13/17/48 21/25/49 20/24/47
f 13/17/48 17/21/32 19/22/46 21/25/49
f 14/18/24 10/14/23 23/27/50 22/26/51
f 10/14/23 15/19/28 24/28/52 23/27/50
f 15/19/28 13/17/48 25/29/53 24/28/52
f 13/17/48 14/18/24 22/26/51 25/29/53
f 15/19/28 11/15/27 27/31/54 26/30/55
f 11/15/27 16/20/31 28/32/56 27/31/54
f 16/20/31 13/17/48 29/33/57 28/32/56
f 13/17/48 15/19/28 26/30/55 29/33/57
f 16/20/31 12/16/30 30/35/58 31/34/59
f 12/16/30 17/21/32 32/36/60 30/35/58
f 17/21/32 13/17/48 33/37/61 32/36/60
f 13/17/48 16/20/31 31/34/59 33/37/61
s off
f 19/22/62 18/23/63 34/39/64 35/38/65
f 18/23/66 20/24/67 36/40/68 34/39/69
f 20/24/70 21/25/71 37/41/72 36/40/73
f 21/25/74 19/22/75 35/38/76 37/41/77
f 22/26/78 23/27/79 39/43/80 38/42/81
f 23/27/82 24/28/83 40/44/84 39/43/85
f 24/28/86 25/29/87 41/45/88 40/44/89
f 25/29/90 22/26/91 38/42/92 41/45/93
f 26/30/94 27/31/95 43/47/96 42/46/97
f 27/31/98 28/32/99 44/48/100 43/47/101
f 28/32/102 29/33/103 45/49/104 44/48/105
f 29/33/106 26/30/107 42/46/108 45/49/109
f 31/34/110 30/35/111 46/51/112 47/50/113
f 30/35/114 32/36/115 48/52/116 46/51/117
f 32/36/118 33/37/119 49/53/120 48/52/121
f 33/37/122 31/34/123 47/50/124 49/53/125
