# This file uses centimeters as units for non-parametric coordinates.

mtllib tile.mtl
g default
v -0.500000 -15.000000 0.500000
v 0.500000 -15.000000 0.500000
v -0.500000 -0.100000 0.500000
v 0.500000 -0.100000 0.500000
v -0.500000 -0.100000 -0.500000
v 0.500000 -0.100000 -0.500000
v -0.500000 -15.000000 -0.500000
v 0.500000 -15.000000 -0.500000
v -0.400000 -0.100000 0.400000
v 0.400000 -0.100000 0.400000
v 0.400000 -0.100000 -0.400000
v -0.400000 -0.100000 -0.400000
v -0.400000 0.000000 0.400000
v 0.400000  0.000000 0.400000
v 0.400000  0.000000 -0.400000
v -0.400000 0.000000 -0.400000
vt 0.000000 1.000000
vt 1.000000 1.000000
vt 1.000000 0.000000
vt 0.000000 0.000000
vt 0.500000 0.5000000
vn 0.000000 0.000000 1.000000
vn 0.000000 0.000000 1.000000
vn 0.000000 0.000000 1.000000
vn 0.000000 0.000000 1.000000
vn 0.000000 1.000000 0.000000
vn 0.000000 1.000000 0.000000
vn 0.000000 1.000000 0.000000
vn 0.000000 1.000000 0.000000
vn 0.000000 0.000000 -1.000000
vn 0.000000 0.000000 -1.000000
vn 0.000000 0.000000 -1.000000
vn 0.000000 0.000000 -1.000000
vn 0.000000 -1.000000 0.000000
vn 0.000000 -1.000000 0.000000
vn 0.000000 -1.000000 0.000000
vn 0.000000 -1.000000 0.000000
vn 1.000000 0.000000 0.000000
vn 1.000000 0.000000 0.000000
vn 1.000000 0.000000 0.000000
vn 1.000000 0.000000 0.000000
vn -1.000000 0.000000 0.000000
vn -1.000000 0.000000 0.000000
vn -1.000000 0.000000 0.000000
vn -1.000000 0.000000 0.000000
vn 0.000000 1.000000 -0.000000
vn 0.000000 1.000000 -0.000000
vn 0.000000 1.000000 -0.000000
vn 0.000000 1.000000 -0.000000
vn 0.000000 1.000000 0.000000
vn 0.000000 1.000000 0.000000
vn 0.000000 1.000000 0.000000
vn 0.000000 1.000000 0.000000
vn 0.000000 0.000000 1.000000
vn 0.000000 0.000000 1.000000
vn 0.000000 0.000000 1.000000
vn 0.000000 0.000000 1.000000
vn 1.000000 0.000000 0.000000
vn 1.000000 0.000000 0.000000
vn 1.000000 0.000000 0.000000
vn 1.000000 0.000000 0.000000
vn 0.000000 0.000000 -1.000000
vn 0.000000 0.000000 -1.000000
vn 0.000000 0.000000 -1.000000
vn 0.000000 0.000000 -1.000000
vn -1.000000 0.000000 0.000000
vn -1.000000 0.000000 0.000000
vn -1.000000 0.000000 0.000000
vn -1.000000 0.000000 0.000000
s off
g pCube1
usemtl sideShadingGroup
f 1/5/1 2/5/2 4/5/3 3/5/4
f 5/5/9 6/5/10 8/5/11 7/5/12
f 7/5/13 8/5/14 2/5/15 1/5/16
f 2/5/17 8/5/18 6/5/19 4/5/20
f 7/5/21 1/5/22 3/5/23 5/5/24
s 1
f 3/5/25 4/5/26 10/5/27 9/5/28
f 4/5/26 6/5/29 11/5/30 10/5/27
f 6/5/29 5/5/31 12/5/32 11/5/30
f 5/5/31 3/5/25 9/5/28 12/5/32
s off
usemtl topShadingGroup
f 13/1/5 14/2/6 15/3/7 16/4/8
f 10/4/37 11/4/38 15/4/39 14/4/40
f 11/4/41 12/4/42 16/4/43 15/4/44
f 9/4/33 10/4/34 14/4/35 13/4/36
f 12/4/45 9/4/46 13/4/47 16/4/48