# Walls
v -0.500000 -15.000000 0.500000
v 0.500000 -15.000000 0.500000
v -0.500000 -0.100000 0.500000
v 0.500000 -0.100000 0.500000
v -0.500000 -0.100000 -0.500000
v 0.500000 -0.100000 -0.500000
v -0.500000 -15.000000 -0.500000
v 0.500000 -15.000000 -0.500000

# Top Plate
v -0.400000 -0.100000 0.400000
v 0.400000 -0.100000 0.400000
v 0.400000 -0.100000 -0.400000
v -0.400000 -0.100000 -0.400000
v -0.400000 0.000000 0.400000
v 0.400000  0.000000 0.400000
v 0.400000  0.000000 -0.400000
v -0.400000 0.000000 -0.400000

# Top face UV coords
vt 0.000000 0.000000
vt 0.000000 1.000000
vt 1.000000 1.000000
vt 1.000000 0.000000

# Side UV coords - sides are 15 times higher than they are wide
vt 0.000000  0.000000
vt 1.000000  0.000000
vt 0.000000 15.000000
vt 1.000000 15.000000

vn  1.000000  0.000000  0.000000
vn -1.000000  0.000000  0.000000
vn  0.000000  1.000000  0.000000
vn  0.000000 -1.000000  0.000000
vn  0.000000  0.000000  1.000000
vn  0.000000  0.000000 -1.000000

s off
g pCube1

####################################
# Sides
usemtl sideShadingGroup
# 4 Walls
f 1/6/5 2/5/5 4/7/5 3/8/5
f 5/7/6 6/8/6 8/6/6 7/5/6
f 2/6/1 8/5/1 6/7/1 4/8/1
f 7/6/2 1/5/2 3/7/2 5/8/2

# Bottom Face
f 7/1/4 8/1/4 2/1/4 1/1/4

# Connect tops of wall to sides of "light tile"
f 3/1/3 4/1/3 10/1/3 9/1/3
f 4/1/3 6/1/3 11/1/3 10/1/3
f 6/1/3 5/1/3 12/1/3 11/1/3
f 5/1/3 3/1/3 9/1/3 12/1/3

####################################
# Top Light Tile
usemtl topShadingGroup

# Top of tile
f 13/2/3 14/3/3 15/4/3 16/1/3

# Sides of tile
f 10/1/1 11/1/1 15/1/1 14/1/1
f 11/1/6 12/1/6 16/1/6 15/1/6
f 9/1/5 10/1/5 14/1/5 13/1/5
f 12/1/2 9/1/2 13/1/2 16/1/2