# Walls
v -0.500000 -15.000000 0.500000
v 0.500000 -15.000000 0.500000
v -0.500000 -0.100000 0.500000
v 0.500000 -0.100000 0.500000
v -0.500000 -0.100000 -0.500000
v 0.500000 -0.100000 -0.500000
v -0.500000 -15.000000 -0.500000
v 0.500000 -15.000000 -0.500000

# Top Plate
v -0.400000 -0.100000 0.400000
v 0.400000 -0.100000 0.400000
v 0.400000 -0.100000 -0.400000
v -0.400000 -0.100000 -0.400000
v -0.400000 0.000000 0.400000
v 0.400000  0.000000 0.400000
v 0.400000  0.000000 -0.400000
v -0.400000 0.000000 -0.400000

# Top face UV coords
vt 0.000000 0.000000
vt 0.000000 1.000000
vt 1.000000 1.000000
vt 1.000000 0.000000

# Side UV coords - sides are 15 times higher than they are wide
vt 0.000000  0.000000
vt 1.000000  0.000000
vt 0.000000 15.000000
vt 1.000000 15.000000

vn 0.000000 0.000000 1.000000
vn 0.000000 0.000000 1.000000
vn 0.000000 0.000000 1.000000
vn 0.000000 0.000000 1.000000
vn 0.000000 1.000000 0.000000
vn 0.000000 1.000000 0.000000
vn 0.000000 1.000000 0.000000
vn 0.000000 1.000000 0.000000
vn 0.000000 0.000000 -1.000000
vn 0.000000 0.000000 -1.000000
vn 0.000000 0.000000 -1.000000
vn 0.000000 0.000000 -1.000000
vn 0.000000 -1.000000 0.000000
vn 0.000000 -1.000000 0.000000
vn 0.000000 -1.000000 0.000000
vn 0.000000 -1.000000 0.000000
vn 1.000000 0.000000 0.000000
vn 1.000000 0.000000 0.000000
vn 1.000000 0.000000 0.000000
vn 1.000000 0.000000 0.000000
vn -1.000000 0.000000 0.000000
vn -1.000000 0.000000 0.000000
vn -1.000000 0.000000 0.000000
vn -1.000000 0.000000 0.000000
vn 0.000000 1.000000 -0.000000
vn 0.000000 1.000000 -0.000000
vn 0.000000 1.000000 -0.000000
vn 0.000000 1.000000 -0.000000
vn 0.000000 1.000000 0.000000
vn 0.000000 1.000000 0.000000
vn 0.000000 1.000000 0.000000
vn 0.000000 1.000000 0.000000
vn 0.000000 0.000000 1.000000
vn 0.000000 0.000000 1.000000
vn 0.000000 0.000000 1.000000
vn 0.000000 0.000000 1.000000
vn 1.000000 0.000000 0.000000
vn 1.000000 0.000000 0.000000
vn 1.000000 0.000000 0.000000
vn 1.000000 0.000000 0.000000
vn 0.000000 0.000000 -1.000000
vn 0.000000 0.000000 -1.000000
vn 0.000000 0.000000 -1.000000
vn 0.000000 0.000000 -1.000000
vn -1.000000 0.000000 0.000000
vn -1.000000 0.000000 0.000000
vn -1.000000 0.000000 0.000000
vn -1.000000 0.000000 0.000000

s off
g pCube1
usemtl sideShadingGroup
# 4 Walls
f 1/6/1 2/5/2 4/7/3 3/8/4
f 5/7/9 6/8/10 8/6/11 7/5/12
f 2/6/17 8/5/18 6/7/19 4/8/20
f 7/6/21 1/5/22 3/7/23 5/8/24

# Bottom Face
f 7/1/13 8/1/14 2/1/15 1/1/16

# Connect tops of wall to sides of "light tile"
f 3/1/25 4/1/26 10/1/27 9/1/28
f 4/1/26 6/1/29 11/1/30 10/1/27
f 6/1/29 5/1/31 12/1/32 11/1/30
f 5/1/31 3/1/25 9/1/28 12/1/32

usemtl topShadingGroup
f 13/2/5 14/3/6 15/4/7 16/1/8
f 10/1/37 11/1/38 15/1/39 14/1/40
f 11/1/41 12/1/42 16/1/43 15/1/44
f 9/1/33 10/1/34 14/1/35 13/1/36
f 12/1/45 9/1/46 13/1/47 16/1/48